<svg width="14" height="14" viewBox="0 0 14 14" fill="none" xmlns="http://www.w3.org/2000/svg">
<path d="M2.32422 9.83496C2.42763 9.5555 2.82237 9.5555 2.92578 9.83496L3.20996 10.6006C3.24248 10.6885 3.31156 10.7575 3.39942 10.79L4.16504 11.0742C4.44451 11.1776 4.44451 11.5724 4.16504 11.6758L3.39942 11.96C3.31156 11.9925 3.24248 12.0616 3.20996 12.1494L2.92578 12.915C2.82237 13.1945 2.42763 13.1945 2.32422 12.915L2.04004 12.1494C2.00753 12.0616 1.93845 11.9925 1.85059 11.96L1.08496 11.6758C0.8055 11.5724 0.8055 11.1776 1.08496 11.0742L1.85059 10.79C1.93845 10.7575 2.00753 10.6885 2.04004 10.6006L2.32422 9.83496ZM6.09668 2.37891C6.40692 1.54052 7.59309 1.54052 7.90332 2.37891L8.75391 4.67774C8.85146 4.94101 9.059 5.14855 9.32227 5.2461L11.6211 6.09668C12.4595 6.40692 12.4595 7.59309 11.6211 7.90332L9.32227 8.75391C9.059 8.85146 8.85146 9.059 8.75391 9.32227L7.90332 11.6211C7.59309 12.4595 6.40692 12.4595 6.09668 11.6211L5.2461 9.32227C5.14855 9.059 4.94101 8.85146 4.67774 8.75391L2.37891 7.90332C1.54052 7.59309 1.54052 6.40692 2.37891 6.09668L4.67774 5.2461C4.94101 5.14855 5.14855 4.94101 5.2461 4.67774L6.09668 2.37891ZM6.34082 5.08203C6.12512 5.66496 5.66496 6.12512 5.08203 6.34082L3.29981 7L5.08203 7.65918C5.66496 7.87489 6.12512 8.33505 6.34082 8.91797L7 10.7002L7.65918 8.91797C7.87489 8.33505 8.33505 7.87489 8.91797 7.65918L10.7002 7L8.91797 6.34082C8.33505 6.12512 7.87489 5.66496 7.65918 5.08203L7 3.29981L6.34082 5.08203ZM11.0742 1.08496C11.1776 0.8055 11.5724 0.8055 11.6758 1.08496L11.96 1.85059C11.9925 1.93845 12.0616 2.00753 12.1494 2.04004L12.915 2.32422C13.1945 2.42763 13.1945 2.82237 12.915 2.92578L12.1494 3.20996C12.0616 3.24248 11.9925 3.31156 11.96 3.39942L11.6758 4.16504C11.5724 4.44451 11.1776 4.44451 11.0742 4.16504L10.79 3.39942C10.7575 3.31156 10.6885 3.24248 10.6006 3.20996L9.83496 2.92578C9.5555 2.82237 9.5555 2.42763 9.83496 2.32422L10.6006 2.04004C10.6885 2.00753 10.7575 1.93845 10.79 1.85059L11.0742 1.08496Z" fill="#5147FF"/>
</svg>
