<svg width="16" height="16" viewBox="0 0 16 16" fill="none" xmlns="http://www.w3.org/2000/svg">
<path fill-rule="evenodd" clip-rule="evenodd" d="M7.16666 1.66589C7.65349 1.27643 8.34573 1.27663 8.83267 1.66589L14.1667 5.62585C14.4827 5.87889 14.6667 6.262 14.6667 6.66687V13.3329C14.6667 14.0692 14.0699 14.6667 13.3336 14.6669H9.33365C8.96546 14.6669 8.66666 14.3681 8.66666 13.9999V10.7997C8.66647 10.7262 8.60639 10.6669 8.53287 10.6669H7.46646C7.39303 10.667 7.33383 10.7263 7.33365 10.7997V13.9999C7.33365 14.3681 7.03485 14.6669 6.66666 14.6669H2.66666C1.93028 14.6669 1.33365 14.0693 1.33365 13.3329V6.66687C1.33365 6.26192 1.5175 5.87889 1.83365 5.62585L7.16666 1.66589ZM2.66666 6.66687V13.3329H5.99966V10.7997C5.99985 9.98989 6.65665 9.33299 7.46646 9.33289H8.53287C9.34277 9.33289 9.99948 9.98981 9.99966 10.7997V13.3329H13.3336V6.66687L7.99966 2.70789L2.66666 6.66687Z" fill="#202945" fill-opacity="0.62"/>
</svg>
