<svg width="90" height="24" viewBox="0 0 90 24" fill="none" xmlns="http://www.w3.org/2000/svg">
<path d="M20.1311 6.86347C20.1298 6.86403 20.1283 6.8634 20.128 6.86214C19.6535 5.16753 20.3325 3.38137 21.8645 2.29439C21.9938 2.20246 21.9103 2.01283 21.7559 2.04751L21.713 2.05715C19.8277 2.48205 17.8433 1.87435 16.637 0.511916L16.6181 0.490426C16.5193 0.378002 16.3232 0.483299 16.3637 0.627035C16.8371 2.31802 16.1607 4.09889 14.6352 5.17778C14.5034 5.27149 14.5918 5.46414 14.7493 5.42886C16.6478 5.00079 18.6551 5.61185 19.8686 6.98728L19.963 7.09402C20.0425 7.18381 20.1994 7.09956 20.1674 6.98429L20.1342 6.86479C20.1338 6.86352 20.1324 6.8629 20.1311 6.86347Z" fill="#26256D"/>
<path d="M13.1934 7.22472C9.12173 7.22498 5.82152 10.5252 5.82129 14.5968C5.82129 14.9929 5.85295 15.3817 5.91309 15.7609H5.43262V23.9103H0V15.3732H0.0263672C0.0111244 15.1162 0 14.8575 0 14.5968C0.000206669 7.31039 5.90696 1.40364 13.1934 1.40343V7.22472Z" fill="url(#paint0_linear_3_118)"/>
<path d="M13.1934 16.5371C9.12171 16.5373 5.82148 19.8385 5.82129 23.9101C5.82129 23.9401 5.82289 23.97 5.82324 24H0.000976562C0.000776986 23.97 0 23.9401 0 23.9101C0.000206669 16.6237 5.90696 10.717 13.1934 10.7168V16.5371Z" fill="#26256D"/>
<path d="M25.6184 18.0456V5.2813H34.252L33.9357 7.71881H28.6513V10.5843H33.4333V12.9101H28.6513V18.0456H25.6184ZM40.478 18.2317C39.4733 18.2317 38.6111 18.027 37.8917 17.6177C37.1722 17.2083 36.614 16.6439 36.2171 15.9245C35.8325 15.205 35.6402 14.3863 35.6402 13.4683V13.1148C35.6402 12.1721 35.8325 11.341 36.2171 10.6215C36.614 9.90202 37.1722 9.34381 37.8917 8.94686C38.6111 8.54991 39.4671 8.35144 40.4594 8.35144C41.4766 8.35144 42.3449 8.55612 43.0644 8.96547C43.7963 9.36242 44.3545 9.92062 44.739 10.6401C45.1236 11.3472 45.3158 12.1721 45.3158 13.1148V13.4683C45.3158 14.4111 45.1174 15.2422 44.7204 15.9617C44.3359 16.6811 43.7839 17.2393 43.0644 17.6363C42.3449 18.0332 41.4828 18.2317 40.478 18.2317ZM40.478 16.371C40.9742 16.371 41.3836 16.185 41.7061 15.8128C42.041 15.4407 42.2085 14.9569 42.2085 14.3615V12.2217C42.2085 11.6139 42.041 11.1301 41.7061 10.7703C41.3836 10.3982 40.9742 10.2121 40.478 10.2121C39.9943 10.2121 39.5849 10.3982 39.25 10.7703C38.9151 11.1301 38.7476 11.6139 38.7476 12.2217V14.3615C38.7476 14.9569 38.9151 15.4407 39.25 15.8128C39.5849 16.185 39.9943 16.371 40.478 16.371ZM48.3601 18.0456V10.6773H46.3878V8.53751H50.7418L50.872 9.74696C51.0705 9.35001 51.3868 9.02129 51.821 8.76079C52.2552 8.48789 52.7948 8.35144 53.4398 8.35144C54.2957 8.35144 54.9594 8.59953 55.4307 9.09572C55.9145 9.5919 56.1564 10.2493 56.1564 11.0681C56.1564 11.2665 56.1502 11.465 56.1378 11.6635C56.1378 11.8495 56.1192 12.048 56.082 12.2589H53.6631V11.7565C53.6631 11.5332 53.6135 11.3285 53.5142 11.1425C53.4274 10.944 53.2909 10.7889 53.1049 10.6773C52.9312 10.5657 52.7141 10.5098 52.4536 10.5098C52.1931 10.5098 51.9698 10.5781 51.7838 10.7145C51.5977 10.851 51.4551 11.0308 51.3558 11.2541C51.2566 11.465 51.207 11.7007 51.207 11.9612V18.0456H48.3601ZM46.3506 18.0456V15.9431H54.7981V18.0456H46.3506ZM57.3586 18.0456V8.53751H59.7403L59.9635 9.61671C60.2613 9.18255 60.6458 8.86623 61.1172 8.66776C61.5886 8.45688 62.1406 8.35144 62.7732 8.35144C63.7904 8.35144 64.5905 8.63054 65.1735 9.18875C65.7689 9.74696 66.0666 10.5284 66.0666 11.5332V18.0456H63.1453V12.1473C63.1453 11.589 63.0213 11.1735 62.7732 10.9006C62.5251 10.6153 62.184 10.4726 61.7498 10.4726C61.4521 10.4726 61.1916 10.5471 60.9683 10.6959C60.745 10.8448 60.5714 11.0494 60.4473 11.3099C60.3357 11.558 60.2799 11.8495 60.2799 12.1845V18.0456H57.3586ZM70.7483 18.2317C69.7683 18.2317 68.9992 18.0022 68.441 17.5433C67.8828 17.0843 67.6037 16.3896 67.6037 15.4593C67.6037 14.715 67.8022 14.1072 68.1991 13.6358C68.6085 13.1644 69.2411 12.8171 70.097 12.5938C70.9654 12.3705 72.088 12.2589 73.4649 12.2589V11.403C73.4649 11.006 73.3471 10.7021 73.1114 10.4912C72.8881 10.268 72.5284 10.1563 72.0322 10.1563C71.5856 10.1563 71.2321 10.2618 70.9716 10.4726C70.7111 10.6835 70.5808 10.9626 70.5808 11.3099V11.4402H67.92C67.92 11.3534 67.9138 11.2975 67.9014 11.2727C67.9014 11.2355 67.9014 11.2169 67.9014 11.2169C67.9014 11.2045 67.9014 11.1983 67.9014 11.1983C67.9014 11.1859 67.9014 11.1611 67.9014 11.1239C67.9014 10.268 68.286 9.5919 69.0551 9.09572C69.8241 8.59953 70.8599 8.35144 72.1624 8.35144C73.5393 8.35144 74.5875 8.61194 75.307 9.13293C76.0265 9.64152 76.3862 10.4106 76.3862 11.4402V15.8128C76.3862 15.9989 76.4234 16.1353 76.4978 16.2222C76.5847 16.309 76.6963 16.3524 76.8327 16.3524C77.0312 16.3524 77.2049 16.3028 77.3537 16.2036V17.8596C77.1801 17.9712 76.9444 18.058 76.6467 18.1201C76.349 18.1945 76.0451 18.2317 75.7349 18.2317C75.2636 18.2317 74.8914 18.1821 74.6185 18.0829C74.3456 17.9836 74.1472 17.8348 74.0231 17.6363C73.8991 17.4378 73.8122 17.1835 73.7626 16.8734C73.5765 17.1463 73.3347 17.3882 73.0369 17.5991C72.7516 17.7976 72.4167 17.9526 72.0322 18.0642C71.6476 18.1759 71.2197 18.2317 70.7483 18.2317ZM71.7717 16.371C72.1314 16.371 72.4353 16.2904 72.6834 16.1291C72.9439 15.9555 73.1362 15.7198 73.2602 15.4221C73.3967 15.1244 73.4649 14.7956 73.4649 14.4359V13.7288C72.7578 13.7288 72.1872 13.7785 71.7531 13.8777C71.3189 13.9769 71.0026 14.1382 70.8041 14.3615C70.6056 14.5724 70.5064 14.8577 70.5064 15.2174C70.5064 15.5895 70.6118 15.8748 70.8227 16.0733C71.0336 16.2718 71.3499 16.371 71.7717 16.371ZM77.7372 18.0456L81.012 13.059L78.0163 8.53751H81.4028L83.003 11.1983H83.0588L84.6776 8.53751H87.8408L84.8078 13.1334L88.0268 18.0456H84.659L82.8169 14.9755H82.7611L80.9004 18.0456H77.7372Z" fill="#080D1E" fill-opacity="0.9"/>
<defs>
<linearGradient id="paint0_linear_3_118" x1="10.619" y1="4.11978" x2="10.619" y2="25.8505" gradientUnits="userSpaceOnUse">
<stop stop-color="#5043E3"/>
<stop offset="0.552633" stop-color="#D0CCFF"/>
<stop offset="1" stop-color="#D0CCFF" stop-opacity="0"/>
</linearGradient>
</defs>
</svg>
