<svg width="16" height="16" viewBox="0 0 16 16" fill="none" xmlns="http://www.w3.org/2000/svg">
<path d="M6.66463 3.6785C7.8844 2.45875 9.6959 2.19143 11.175 2.87654C11.1959 2.88621 11.2007 2.9137 11.1844 2.92996L9.02167 5.0927C8.8915 5.2229 8.8915 5.43394 9.02167 5.5641L10.4359 6.97834C10.5661 7.1085 10.7771 7.1085 10.9073 6.97834L13.07 4.81557C13.0863 4.7993 13.1138 4.8041 13.1235 4.82497C13.8086 6.3041 13.5412 8.1156 12.3215 9.33537C11.09 10.5669 9.25523 10.8275 7.7684 10.1172L4.30763 13.578C4.17743 13.7082 3.9664 13.7082 3.8362 13.578L2.422 12.1638C2.29183 12.0336 2.29183 11.8225 2.422 11.6924L5.88277 8.2316C5.1725 6.74477 5.43313 4.91 6.66463 3.6785Z" stroke="#0F1528" stroke-opacity="0.82" stroke-width="1.25"/>
</svg>
