<svg width="14" height="14" viewBox="0 0 14 14" fill="none" xmlns="http://www.w3.org/2000/svg">
<path d="M2.91675 8.75033V9.91699C2.91665 10.2113 3.02782 10.4948 3.22795 10.7106C3.42809 10.9265 3.70241 11.0587 3.99591 11.0807L4.08341 11.0837H5.83341V12.2503H4.08341C3.46458 12.2503 2.87108 12.0045 2.4335 11.5669C1.99591 11.1293 1.75008 10.5358 1.75008 9.91699V8.75033H2.91675ZM10.5001 5.83366L13.0667 12.2503H11.8097L11.1091 10.5003H8.72325L8.02383 12.2503H6.76733L9.33342 5.83366H10.5001ZM9.91675 7.51658L9.18933 9.33366H10.643L9.91675 7.51658ZM4.66675 1.16699V2.33366H7.00008V6.41699H4.66675V8.16699H3.50008V6.41699H1.16675V2.33366H3.50008V1.16699H4.66675ZM9.91675 1.75033C10.5356 1.75033 11.1291 1.99616 11.5667 2.43374C12.0042 2.87133 12.2501 3.46482 12.2501 4.08366V5.25033H11.0834V4.08366C11.0834 3.93045 11.0532 3.77874 10.9946 3.63719C10.936 3.49565 10.85 3.36704 10.7417 3.2587C10.6334 3.15037 10.5048 3.06443 10.3632 3.0058C10.2217 2.94717 10.07 2.91699 9.91675 2.91699H8.16675V1.75033H9.91675ZM3.50008 3.50033H2.33341V5.25033H3.50008V3.50033ZM5.83341 3.50033H4.66675V5.25033H5.83341V3.50033Z" fill="#202945" fill-opacity="0.62"/>
</svg>
