<svg width="16" height="16" viewBox="0 0 16 16" fill="none" xmlns="http://www.w3.org/2000/svg">
<path d="M8 0.667084C9.61919 0.667084 11.1168 1.19221 12.3301 2.08115L12.832 1.3204C12.9782 1.09881 13.3125 1.12906 13.417 1.37314L14.624 4.19443C14.7179 4.41418 14.5573 4.658 14.3184 4.65829L11.249 4.65927C10.9836 4.65917 10.8245 4.36328 10.9707 4.14169L11.5947 3.1954C10.5927 2.44433 9.34878 2.00009 8 2.00009C4.6863 2.0001 2 4.68639 2 8.00009C2.00002 11.3138 4.68631 14.0001 8 14.0001C11.3137 14.0001 14 11.3138 14 8.00009C14 7.6319 14.2988 7.3331 14.667 7.3331C15.035 7.33327 15.333 7.63201 15.333 8.00009C15.333 12.0502 12.0501 15.3331 8 15.3331C3.94993 15.3331 0.667009 12.0502 0.666992 8.00009C0.666992 3.95001 3.94992 0.667089 8 0.667084Z" fill="#0F1528" fill-opacity="0.82"/>
</svg>
