<svg width="12" height="12" viewBox="0 0 12 12" fill="none" xmlns="http://www.w3.org/2000/svg">
<g clip-path="url(#clip0_3_527)">
<path fill-rule="evenodd" clip-rule="evenodd" d="M6 11.5C2.96244 11.5 0.5 9.03755 0.5 6C0.5 2.96244 2.96244 0.5 6 0.5C9.03755 0.5 11.5 2.96244 11.5 6C11.5 9.03755 9.03755 11.5 6 11.5ZM4.23224 4.93934L5.2929 6L4.23224 7.06065C4.03698 7.2559 4.03698 7.5725 4.23224 7.76775C4.42751 7.96305 4.74409 7.96305 4.93935 7.76775L6 6.7071L7.06065 7.76775C7.25595 7.96305 7.5725 7.96305 7.7678 7.76775C7.96305 7.5725 7.96305 7.2559 7.7678 7.06065L6.7071 6L7.7678 4.93934C7.96305 4.74408 7.96305 4.4275 7.7678 4.23223C7.5725 4.03697 7.25595 4.03697 7.06065 4.23223L6 5.2929L4.93935 4.23223C4.74409 4.03697 4.42751 4.03697 4.23224 4.23223C4.03698 4.4275 4.03698 4.74408 4.23224 4.93934Z" fill="#D0292F"/>
</g>
<defs>
<clipPath id="clip0_3_527">
<rect width="12" height="12" fill="white"/>
</clipPath>
</defs>
</svg>
