<svg width="16" height="16" viewBox="0 0 16 16" fill="none" xmlns="http://www.w3.org/2000/svg">
<path fill-rule="evenodd" clip-rule="evenodd" d="M6.83333 0.673509C7.5551 0.25683 8.44451 0.256974 9.16634 0.673509L13.762 3.32683C14.4837 3.74368 14.928 4.51389 14.9281 5.34734V10.653C14.9281 11.4864 14.4837 12.2566 13.762 12.6735L9.16634 15.3268C8.44447 15.7434 7.55514 15.7436 6.83333 15.3268L2.2386 12.6735C1.51673 12.2567 1.07161 11.4866 1.07161 10.653V5.34734C1.07164 4.51375 1.5167 3.74363 2.2386 3.32683L6.83333 0.673509ZM2.4056 10.653C2.4056 11.0103 2.59619 11.3406 2.9056 11.5192L7.33333 14.0759V8.38542L2.4056 5.53972V10.653ZM8.66634 8.38445V14.0759L13.095 11.5192C13.4044 11.3406 13.595 11.0103 13.595 10.653V5.53972L8.66634 8.38445ZM8.50032 1.82878C8.19095 1.65016 7.80971 1.65019 7.50032 1.82878L3.07161 4.38542L7.99935 7.23015L12.9281 4.38542L8.50032 1.82878Z" fill="#0F1528" fill-opacity="0.82"/>
</svg>
