<svg width="12" height="12" viewBox="0 0 12 12" fill="none" xmlns="http://www.w3.org/2000/svg">
<path fill-rule="evenodd" clip-rule="evenodd" d="M5.99976 0.500031C9.03765 0.500031 11.4998 2.96214 11.4998 6.00003C11.4997 9.03791 9.03764 11.5 5.99976 11.5C2.96193 11.5 0.499764 9.03787 0.499756 6.00003C0.499756 2.96218 2.96192 0.500096 5.99976 0.500031Z" fill="#00815C"/>
<path fill-rule="evenodd" clip-rule="evenodd" d="M7.88942 4.43943C8.0847 4.24438 8.40126 4.24424 8.59645 4.43943C8.79145 4.63464 8.79144 4.95125 8.59645 5.14646L5.76735 7.97459C5.57208 8.16985 5.25558 8.16985 5.06031 7.97459L3.64625 6.56053C3.45113 6.36525 3.45104 6.04871 3.64625 5.8535C3.84147 5.6583 4.15802 5.65839 4.35328 5.8535L5.41383 6.91404L7.88942 4.43943Z" fill="white"/>
</svg>
