<svg width="23" height="24" viewBox="0 0 23 24" fill="none" xmlns="http://www.w3.org/2000/svg">
<path d="M20.1311 6.86347C20.1298 6.86403 20.1284 6.8634 20.128 6.86214C19.6535 5.16753 20.3325 3.38137 21.8645 2.29439C21.9938 2.20246 21.9103 2.01283 21.7559 2.04751L21.713 2.05715C19.8278 2.48205 17.8434 1.87435 16.637 0.511918L16.6181 0.490428C16.5193 0.378004 16.3232 0.483301 16.3637 0.627037C16.8371 2.31802 16.1607 4.09889 14.6352 5.17779C14.5034 5.27149 14.5918 5.46414 14.7493 5.42886C16.6478 5.00079 18.6551 5.61185 19.8686 6.98728L19.9631 7.09402C20.0425 7.18381 20.1994 7.09956 20.1674 6.9843L20.1342 6.86479C20.1338 6.86352 20.1324 6.8629 20.1311 6.86347Z" fill="#26256D"/>
<path d="M13.1934 7.22473C9.12173 7.22498 5.82152 10.5252 5.82129 14.5968C5.82129 14.9929 5.85295 15.3817 5.91309 15.7609H5.43262V23.9103H0V15.3732H0.0263672C0.0111244 15.1162 0 14.8575 0 14.5968C0.000206669 7.3104 5.90696 1.40365 13.1934 1.40344V7.22473Z" fill="url(#paint0_linear_12_1105)"/>
<path d="M13.1934 16.5371C9.12171 16.5373 5.82148 19.8385 5.82129 23.9101C5.82129 23.9401 5.82288 23.9701 5.82324 24H0.000976562C0.000776986 23.97 0 23.9401 0 23.9101C0.000206669 16.6237 5.90696 10.717 13.1934 10.7168V16.5371Z" fill="#26256D"/>
<defs>
<linearGradient id="paint0_linear_12_1105" x1="10.619" y1="4.11978" x2="10.619" y2="25.8505" gradientUnits="userSpaceOnUse">
<stop stop-color="#5043E3"/>
<stop offset="0.552633" stop-color="#D0CCFF"/>
<stop offset="1" stop-color="#D0CCFF" stop-opacity="0"/>
</linearGradient>
</defs>
</svg>
