<svg width="16" height="16" viewBox="0 0 16 16" fill="none" xmlns="http://www.w3.org/2000/svg">
<path fill-rule="evenodd" clip-rule="evenodd" d="M8 1C11.6429 1 14.6666 2.34325 14.667 4.31445V11.6855C14.6666 13.6567 11.6429 15 8 15C4.35708 15 1.33342 13.6567 1.33301 11.6855V4.31445C1.33343 2.34325 4.35708 1 8 1ZM13.3965 10C12.1781 10.8238 10.2023 11.3145 8 11.3145C5.7977 11.3145 3.82193 10.8238 2.60352 10V11.6855C2.60417 12.6744 4.9811 13.7305 8 13.7305C11.0189 13.7305 13.3958 12.6744 13.3965 11.6855V10ZM13.3965 6.31445C12.1781 7.13833 10.2024 7.62988 8 7.62988C5.79759 7.62988 3.82192 7.13833 2.60352 6.31445V8.05371C2.60493 8.05467 2.60547 8.05664 2.60547 8.05664C2.69376 9.02885 5.03824 10.0449 8 10.0449C10.9905 10.0449 13.3517 9.009 13.3965 8.02832V6.31445ZM8 2.26953C4.9811 2.26953 2.60417 3.32564 2.60352 4.31445C2.60352 5.30339 4.98069 6.36035 8 6.36035C10.987 6.36035 13.3463 5.32633 13.3965 4.34668V4.31445C13.3958 3.32564 11.0189 2.26953 8 2.26953Z" fill="#0F1528" fill-opacity="0.82"/>
</svg>
