<svg width="16" height="16" viewBox="0 0 16 16" fill="none" xmlns="http://www.w3.org/2000/svg">
<path d="M6.66463 3.67847C7.8844 2.45872 9.6959 2.1914 11.175 2.87651C11.1959 2.88618 11.2007 2.91367 11.1844 2.92993L9.02167 5.09267C8.8915 5.22287 8.8915 5.43391 9.02167 5.56407L10.4359 6.97831C10.5661 7.10847 10.7771 7.10847 10.9073 6.97831L13.07 4.81554C13.0863 4.79927 13.1138 4.80407 13.1235 4.82494C13.8086 6.30407 13.5412 8.11557 12.3215 9.33534C11.09 10.5668 9.25523 10.8275 7.7684 10.1172L4.30763 13.578C4.17743 13.7081 3.9664 13.7081 3.8362 13.578L2.422 12.1637C2.29183 12.0336 2.29183 11.8225 2.422 11.6923L5.88277 8.23157C5.1725 6.74474 5.43313 4.90997 6.66463 3.67847Z" stroke="#0F1528" stroke-opacity="0.82" stroke-width="1.25"/>
</svg>
