<svg width="16" height="16" viewBox="0 0 16 16" fill="none" xmlns="http://www.w3.org/2000/svg">
<path d="M10.667 6.51172C11.0794 6.27375 11.5876 6.27368 12 6.51172L14.3066 7.84375C14.7191 8.08186 14.9735 8.52184 14.9736 8.99805V11.6621C14.9736 12.1384 14.7191 12.5782 14.3066 12.8164L12 14.1484C11.5875 14.3865 11.0795 14.3865 10.667 14.1484L8.36035 12.8164C7.94786 12.5783 7.69341 12.1384 7.69336 11.6621V8.99805C7.6935 8.52184 7.94793 8.08186 8.36035 7.84375L10.667 6.51172ZM6 12C6.36819 12 6.66699 12.2988 6.66699 12.667C6.66682 13.035 6.36808 13.333 6 13.333H2C1.63192 13.333 1.33318 13.035 1.33301 12.667C1.33301 12.2988 1.63181 12 2 12H6ZM9.02637 8.99805V11.6621L11.333 12.9941L13.6396 11.6621V8.99805L11.333 7.66699L9.02637 8.99805ZM11.333 9.33008C11.8853 9.33008 12.3329 9.77785 12.333 10.3301C12.333 10.8824 11.8853 11.3301 11.333 11.3301C10.7809 11.3299 10.333 10.8823 10.333 10.3301C10.3331 9.77796 10.7809 9.33025 11.333 9.33008ZM6 7.33301C6.36819 7.33301 6.66699 7.63181 6.66699 8C6.66699 8.36819 6.36819 8.66699 6 8.66699H2C1.63181 8.66699 1.33301 8.36819 1.33301 8C1.33301 7.63181 1.63181 7.33301 2 7.33301H6ZM14 2.66699C14.3681 2.66699 14.6668 2.96497 14.667 3.33301C14.667 3.7012 14.3682 4 14 4H2C1.63181 4 1.33301 3.7012 1.33301 3.33301C1.33318 2.96497 1.63192 2.66699 2 2.66699H14Z" fill="#0F1528" fill-opacity="0.82"/>
</svg>
