<svg width="16" height="16" viewBox="0 0 16 16" fill="none" xmlns="http://www.w3.org/2000/svg">
<path fill-rule="evenodd" clip-rule="evenodd" d="M8 0.666992C12.0501 0.666992 15.333 3.94991 15.333 8C15.333 12.0501 12.0501 15.333 8 15.333C3.94991 15.333 0.666992 12.0501 0.666992 8C0.666992 3.94991 3.94991 0.666992 8 0.666992ZM8 2C4.68629 2 2 4.68629 2 8C2 11.3137 4.68629 14 8 14C11.3137 14 14 11.3137 14 8C14 4.68629 11.3137 2 8 2ZM8 4.66699C8.36808 4.66699 8.66682 4.96497 8.66699 5.33301V7.33301H10.667C11.035 7.33318 11.333 7.63192 11.333 8C11.333 8.36808 11.035 8.66682 10.667 8.66699H8C7.63181 8.66699 7.33301 8.36819 7.33301 8V5.33301C7.33318 4.96497 7.63192 4.66699 8 4.66699Z" fill="#080D1E" fill-opacity="0.9"/>
</svg>
