<svg width="16" height="16" viewBox="0 0 16 16" fill="none" xmlns="http://www.w3.org/2000/svg">
<path d="M2.66862 2.67317V11.3565C2.66862 12.4611 3.56405 13.3565 4.66862 13.3565H9.461C9.75027 14.2477 10.5875 14.8921 11.5751 14.8921C12.8024 14.8921 13.7973 13.8971 13.7973 12.6698C13.7973 11.4425 12.8024 10.4476 11.5751 10.4476C10.5727 10.4476 9.72533 11.1113 9.4484 12.0232H4.66862C4.30043 12.0232 4.00195 11.7247 4.00195 11.3565V7.33199H9.48927C9.81547 8.15372 10.6177 8.73479 11.5555 8.73479C12.7829 8.73479 13.7778 7.73985 13.7778 6.51257C13.7778 5.28527 12.7829 4.29035 11.5555 4.29035C10.5051 4.29035 9.62493 5.01915 9.39307 5.99868H4.00195V2.67317C4.00195 2.30497 3.70347 2.0065 3.33529 2.0065C2.96709 2.0065 2.66862 2.30497 2.66862 2.67317ZM11.5751 13.6476C11.0351 13.6476 10.5973 13.2099 10.5973 12.6699C10.5973 12.1298 11.0351 11.6921 11.5751 11.6921C12.1151 11.6921 12.5529 12.1298 12.5529 12.6699C12.5529 13.2099 12.1151 13.6476 11.5751 13.6476ZM12.5333 6.51257C12.5333 7.05259 12.0956 7.49032 11.5555 7.49032C11.0155 7.49032 10.5778 7.05259 10.5778 6.51257C10.5778 5.97256 11.0155 5.53479 11.5555 5.53479C12.0956 5.53479 12.5333 5.97256 12.5333 6.51257Z" fill="#0F1528" fill-opacity="0.82"/>
</svg>
