<svg width="16" height="16" viewBox="0 0 16 16" fill="none" xmlns="http://www.w3.org/2000/svg">
<path fill-rule="evenodd" clip-rule="evenodd" d="M8 1.452C8.99019 1.452 9.94939 1.64524 10.8545 2.02817C11.7258 2.39628 12.5175 2.93079 13.1855 3.60043C13.855 4.26831 14.3888 5.05945 14.7568 5.93051C15.1382 6.83572 15.333 7.79565 15.333 8.78598C15.3329 10.9581 14.3792 13.0043 12.7178 14.4022L12.6895 14.4247C12.5945 14.5032 12.4753 14.5477 12.3525 14.5477H3.64941C3.52665 14.5477 3.40646 14.5032 3.31152 14.4247L3.28418 14.4022C1.62115 13.0043 0.667073 10.9581 0.666992 8.78598C0.666992 7.79565 0.860128 6.83572 1.24316 5.93051C1.61125 5.05945 2.145 4.26831 2.81445 3.60043C3.48248 2.93079 4.2742 2.39628 5.14551 2.02817C6.05061 1.64524 7.00981 1.452 8 1.452ZM8 2.69614C6.37472 2.69614 4.84602 3.32979 3.69531 4.48032C2.54457 5.62942 1.91113 7.1589 1.91113 8.78598C1.91031 9.63741 2.088 10.4795 2.43359 11.2577C2.77933 12.036 3.28546 12.7332 3.91797 13.3036H12.082C13.3604 12.1496 14.0888 10.5145 14.0889 8.78598C14.0889 7.16053 13.4554 5.63106 12.3047 4.48032C11.1556 3.32979 9.62692 2.69614 8 2.69614ZM11.083 5.33481C11.2245 5.22933 11.4632 5.22082 11.5771 5.33481C11.691 5.44883 11.6826 5.68749 11.5771 5.82895C11.5586 5.85386 11.48 5.96504 11.3613 6.13461C10.7892 6.95197 9.26926 9.12403 8.86035 9.53305C8.36643 10.027 7.72274 9.8768 7.37891 9.53305C7.03509 9.18924 6.88494 8.54557 7.37891 8.05161C7.78792 7.6427 9.95996 6.12176 10.7773 5.54965C10.9469 5.43097 11.0582 5.3533 11.083 5.33481ZM4.16699 8.30942C4.25903 8.30943 4.33398 8.38437 4.33398 8.47641V9.36508C4.33398 9.45712 4.25903 9.53206 4.16699 9.53207H2.66797C2.57592 9.53207 2.50098 9.45713 2.50098 9.36508V8.47641C2.50098 8.38436 2.57592 8.30942 2.66797 8.30942H4.16699ZM13.3252 8.30942C13.4172 8.30942 13.4922 8.38436 13.4922 8.47641V9.36508C13.4922 9.45713 13.4172 9.53207 13.3252 9.53207H11.8262C11.7341 9.53207 11.6592 9.45713 11.6592 9.36508V8.47641C11.6592 8.38436 11.7341 8.30942 11.8262 8.30942H13.3252ZM4.36523 4.65024C4.43032 4.58515 4.53648 4.58515 4.60156 4.65024L5.66113 5.70981C5.72622 5.7749 5.72622 5.88105 5.66113 5.94614L5.0332 6.57407C4.96812 6.63915 4.86196 6.63915 4.79688 6.57407L3.7373 5.5145C3.67222 5.44941 3.67222 5.34326 3.7373 5.27817L4.36523 4.65024ZM8.44434 3.10727C8.53638 3.10727 8.61133 3.18221 8.61133 3.27426V4.77328C8.61133 4.86533 8.53638 4.94028 8.44434 4.94028H7.55566C7.46362 4.94028 7.38867 4.86533 7.38867 4.77328V3.27426C7.38867 3.18221 7.46362 3.10727 7.55566 3.10727H8.44434Z" fill="#5A4DED"/>
</svg>
