<svg width="16" height="16" viewBox="0 0 16 16" fill="none" xmlns="http://www.w3.org/2000/svg">
<path d="M13.333 1.33301C14.0694 1.33301 14.667 1.93061 14.667 2.66699V4.62988C14.667 5.11586 14.4023 5.5634 13.9766 5.79785L10.667 7.62109V14C10.667 14.3682 10.3682 14.667 10 14.667C9.63181 14.667 9.33301 14.3682 9.33301 14V7.33301C9.33305 7.23515 9.35466 7.14229 9.39258 7.05859C9.44323 6.93285 9.53395 6.82182 9.65918 6.74707L13.333 4.55371V2.66699H2.66699V4.57715L6.23047 6.70703C6.48508 6.80075 6.66686 7.0459 6.66699 7.33301V11.667C6.66682 12.035 6.36808 12.333 6 12.333C5.63192 12.333 5.33318 12.035 5.33301 11.667V7.64355C5.01453 7.45321 3.08699 6.39834 2.02832 5.82031C1.60009 5.5864 1.33316 5.13833 1.33301 4.65039V2.66699C1.33301 1.93061 1.93061 1.33301 2.66699 1.33301H13.333Z" fill="#0F1528" fill-opacity="0.82"/>
</svg>
