<svg width="12" height="12" viewBox="0 0 12 12" fill="none" xmlns="http://www.w3.org/2000/svg">
<g clip-path="url(#clip0_3_499)">
<path d="M6 0.5C2.96244 0.5 0.5 2.96244 0.5 6C0.5 9.03755 2.96244 11.5 6 11.5C9.03755 11.5 11.5 9.03755 11.5 6C11.5 4.48122 10.8844 3.10622 9.8891 2.11091C9.6938 1.91565 9.37725 1.91567 9.18195 2.11093C8.9867 2.3062 8.9867 2.62277 9.18195 2.81804L9.18515 2.82119C9.99765 3.63528 10.5 4.75898 10.5 6C10.5 8.4853 8.4853 10.5 6 10.5C3.51472 10.5 1.5 8.4853 1.5 6C1.5 3.515 3.51426 1.50046 5.99915 1.5H6C6.27615 1.5 6.5 1.27614 6.5 1C6.5 0.72386 6.27615 0.5 6 0.5Z" fill="#3D79F2"/>
</g>
<defs>
<clipPath id="clip0_3_499">
<rect width="12" height="12" fill="white"/>
</clipPath>
</defs>
</svg>
