<svg width="14" height="14" viewBox="0 0 14 14" fill="none" xmlns="http://www.w3.org/2000/svg">
<path d="M11.8584 10.6709L8.95215 13.5771C8.83028 13.699 8.67292 13.7794 8.50293 13.8076L7.40039 13.9912C7.36901 13.9964 7.33703 13.9863 7.31445 13.9639C7.29157 13.941 7.28143 13.9078 7.28711 13.876L7.48242 12.7783C7.51163 12.6147 7.59054 12.4642 7.70801 12.3467L10.6211 9.43359L11.8584 10.6709ZM11.083 0.583008C11.7273 0.583008 12.25 1.10567 12.25 1.75V7.0791C11.8805 7.12718 11.5231 7.29332 11.2393 7.57715L11.083 7.7334V1.75H2.91699V12.25H6.73438C6.68259 12.3695 6.64421 12.4954 6.62109 12.625L6.47949 13.417H2.91699C2.27266 13.417 1.75 12.8943 1.75 12.25V1.75C1.75 1.10567 2.27266 0.583008 2.91699 0.583008H11.083ZM11.8584 8.19629C12.2001 7.85458 12.754 7.85458 13.0957 8.19629C13.4373 8.53801 13.4374 9.09193 13.0957 9.43359L12.4775 10.0518L11.2393 8.81445L11.8584 8.19629ZM7 7C7.32206 7 7.58283 7.26099 7.58301 7.58301C7.58301 7.90517 7.32217 8.16699 7 8.16699H4.66699C4.34483 8.16699 4.08301 7.90517 4.08301 7.58301C4.08318 7.26099 4.34493 7 4.66699 7H7ZM9.33301 4.08301C9.65517 4.08301 9.91699 4.34483 9.91699 4.66699C9.91682 4.98901 9.65507 5.25 9.33301 5.25H4.66699C4.34493 5.25 4.08318 4.98901 4.08301 4.66699C4.08301 4.34483 4.34483 4.08301 4.66699 4.08301H9.33301Z" fill="#272E3B"/>
</svg>
